<svg xmlns="http://www.w3.org/2000/svg" version="1.1" xmlns:xlink="http://www.w3.org/1999/xlink" xmlns:svgjs="http://svgjs.com/svgjs" width="1440" height="560" preserveAspectRatio="none" viewBox="0 0 1440 560"><g mask="url(&quot;#SvgjsMask2141&quot;)" fill="none"><rect width="1440" height="560" x="0" y="0" fill="rgba(12, 9, 10, 1)"></rect><circle r="57.5437552584767" cx="1094.06" cy="120.12" stroke="rgba(224, 202, 60, 1)" stroke-width="2.94" stroke-dasharray="3, 3"></circle><circle r="46.666666666666664" cx="739" cy="547.37" fill="rgba(167, 29, 49, 1)"></circle><path d="M212.57 433.88L199.82 435.11 195.82 422.94 183.07 424.17 179.08 412.01 166.33 413.24 162.33 401.07" stroke="rgba(167, 29, 49, 1)" stroke-width="2.14" stroke-dasharray="3, 3"></path><rect width="372" height="372" clip-path="url(&quot;#SvgjsClipPath2142&quot;)" x="116.56" y="79.72" fill="url(#SvgjsPattern2143)" transform="rotate(105.2, 302.56, 265.72)"></rect><path d="M1284.2 60.230000000000004 L1333.69 81.56L1288.7499897980888 91.09001020191143z" fill="rgba(224, 202, 60, 1)"></path><path d="M1156.39 525.61 L1004.01 495.03000000000003L991.1288513505375 599.3911486494626z" stroke="rgba(224, 202, 60, 1)" stroke-width="1.82" stroke-dasharray="3, 3"></path><path d="M1071.01 244.17L1064.19 233.33 1073.27 224.29 1066.44 213.46 1075.52 204.42 1068.7 193.58 1077.77 184.55" stroke="rgba(167, 29, 49, 1)" stroke-width="2.75" stroke-dasharray="4, 4"></path><path d="M118.92 78.38a5.6 5.6 0 1 0-2.29 10.96 5.6 5.6 0 1 0 2.29-10.96zM115.65 94.04a5.6 5.6 0 1 0-2.3 10.96 5.6 5.6 0 1 0 2.3-10.96zM112.37 109.7a5.6 5.6 0 1 0-2.29 10.96 5.6 5.6 0 1 0 2.29-10.96zM109.09 125.36a5.6 5.6 0 1 0-2.29 10.96 5.6 5.6 0 1 0 2.29-10.96zM109.82 43.78a5.6 5.6 0 1 0-2.3 10.96 5.6 5.6 0 1 0 2.3-10.96zM106.54 59.44a5.6 5.6 0 1 0-2.29 10.96 5.6 5.6 0 1 0 2.29-10.96zM103.26 75.1a5.6 5.6 0 1 0-2.29 10.96 5.6 5.6 0 1 0 2.29-10.96zM99.99 90.76a5.6 5.6 0 1 0-2.3 10.96 5.6 5.6 0 1 0 2.3-10.96zM100.71 9.18a5.6 5.6 0 1 0-2.29 10.96 5.6 5.6 0 1 0 2.29-10.96zM97.44 24.84a5.6 5.6 0 1 0-2.3 10.96 5.6 5.6 0 1 0 2.3-10.96zM94.16 40.5a5.6 5.6 0 1 0-2.3 10.96 5.6 5.6 0 1 0 2.3-10.96zM90.88 56.16a5.6 5.6 0 1 0-2.29 10.96 5.6 5.6 0 1 0 2.29-10.96z" stroke="rgba(224, 202, 60, 1)" stroke-width="1.21" stroke-dasharray="2, 2"></path><path d="M533.41 125.67L532.16 138.41 519.45 139.99 518.21 152.74 505.5 154.32 504.25 167.07 491.54 168.65M527.68 120.09L526.43 132.83 513.72 134.41 512.48 147.16 499.77 148.74 498.52 161.48 485.81 163.06" stroke="rgba(167, 29, 49, 1)" stroke-width="1.45" stroke-dasharray="3, 3"></path><path d="M208.38 376.34a5.6 5.6 0 1 0 0.99 11.16 5.6 5.6 0 1 0-0.99-11.16zM209.79 392.28a5.6 5.6 0 1 0 0.98 11.16 5.6 5.6 0 1 0-0.98-11.16zM211.19 408.22a5.6 5.6 0 1 0 0.99 11.16 5.6 5.6 0 1 0-0.99-11.16zM212.6 424.16a5.6 5.6 0 1 0 0.98 11.16 5.6 5.6 0 1 0-0.98-11.16zM189.63 345.87a5.6 5.6 0 1 0 0.99 11.16 5.6 5.6 0 1 0-0.99-11.16zM191.04 361.81a5.6 5.6 0 1 0 0.98 11.16 5.6 5.6 0 1 0-0.98-11.16zM192.44 377.75a5.6 5.6 0 1 0 0.99 11.16 5.6 5.6 0 1 0-0.99-11.16zM193.85 393.69a5.6 5.6 0 1 0 0.98 11.16 5.6 5.6 0 1 0-0.98-11.16z" fill="rgba(167, 29, 49, 1)"></path><path d="M929.09 37.9L922.15 48.66 910.12 44.25 903.18 55.01 891.16 50.6 884.22 61.36 872.19 56.96M926.55 30.31L919.6 41.07 907.58 36.66 900.64 47.43 888.62 43.02 881.68 53.78 869.65 49.37M924 22.73L917.06 33.49 905.04 29.08 898.1 39.84 886.08 35.43 879.13 46.19 867.11 41.78" stroke="rgba(224, 202, 60, 1)" stroke-width="1.28" stroke-dasharray="4, 4"></path><path d="M988.77 17.24a5.6 5.6 0 1 0 1.16 11.13 5.6 5.6 0 1 0-1.16-11.13zM990.43 33.15a5.6 5.6 0 1 0 1.17 11.14 5.6 5.6 0 1 0-1.17-11.14zM992.1 49.06a5.6 5.6 0 1 0 1.17 11.14 5.6 5.6 0 1 0-1.17-11.14zM993.77 64.97a5.6 5.6 0 1 0 1.16 11.14 5.6 5.6 0 1 0-1.16-11.14z" fill="rgba(224, 202, 60, 1)"></path></g><defs><mask id="SvgjsMask2141"><rect width="1440" height="560" fill="#ffffff"></rect></mask><pattern x="0" y="0" width="6" height="6" patternUnits="userSpaceOnUse" id="SvgjsPattern2143"><path d="M3 1L3 5M1 3L5 3" stroke="rgba(167, 29, 49, 1)" fill="none" stroke-width="1.67"></path></pattern><clipPath id="SvgjsClipPath2142"><circle r="93" cx="302.56" cy="265.72"></circle></clipPath></defs></svg>